P3
16 16
255
000 000 000 000 000 000 000 000 000 127 178 56 
127 178 56 127 178 56 127 178 56 127 178 56 
127 178 56 127 178 56 000 000 000 000 000 000 
000 000 000 000 000 000 127 178 56 000 000 000 

000 000 000 000 000 000 000 000 000 127 178 56 
127 178 56 127 178 56 127 178 56 127 178 56 
127 178 56 127 178 56 000 000 000 000 000 000 
000 000 000 000 000 000 127 178 56 000 000 000 

000 000 000 000 000 000 000 000 000 127 178 56 
127 178 56 127 178 56 127 178 56 127 178 56 
127 178 56 127 178 56 000 000 000 000 000 000 
000 000 000 000 000 000 127 178 56 000 000 000 

000 000 000 000 000 000 000 000 000 127 178 56 
127 178 56 127 178 56 127 178 56 127 178 56 
127 178 56 127 178 56 000 000 000 000 000 000 
000 000 000 000 000 000 127 178 56 000 000 000 

000 000 000 000 000 000 000 000 000 000 000 000 
127 178 56 127 178 56 127 178 56 127 178 56 
127 178 56 127 178 56 000 000 000 000 000 000 
000 000 000 000 000 000 127 178 56 000 000 000 

000 000 000 000 000 000 127 178 56 127 178 56 
127 178 56 127 178 56 127 178 56 127 178 56 
127 178 56 000 000 000 000 000 000 000 000 000 
000 000 000 000 000 000 000 000 000 000 000 000 

000 000 000 127 178 56 127 178 56 127 178 56 
127 178 56 127 178 56 127 178 56 127 178 56 
000 000 000 000 000 000 000 000 000 000 000 000 
000 000 000 000 000 000 000 000 000 000 000 000 

000 000 000 127 178 56 127 178 56 127 178 56 
127 178 56 127 178 56 127 178 56 127 178 56 
000 000 000 000 000 000 000 000 000 000 000 000 
000 000 000 000 000 000 000 000 000 000 000 000 

000 000 000 127 178 56 127 178 56 127 178 56 
127 178 56 127 178 56 127 178 56 127 178 56 
000 000 000 000 000 000 000 000 000 000 000 000 
000 000 000 000 000 000 000 000 000 000 000 000 

000 000 000 127 178 56 127 178 56 127 178 56 
127 178 56 127 178 56 127 178 56 127 178 56 
000 000 000 000 000 000 000 000 000 000 000 000 
000 000 000 000 000 000 000 000 000 000 000 000 

000 000 000 127 178 56 127 178 56 127 178 56 
127 178 56 127 178 56 127 178 56 127 178 56 
000 000 000 000 000 000 000 000 000 000 000 000 
000 000 000 000 000 000 000 000 000 000 000 000 

000 000 000 000 000 000 127 178 56 127 178 56 
127 178 56 127 178 56 127 178 56 000 000 000 
000 000 000 000 000 000 000 000 000 000 000 000 
000 000 000 000 000 000 000 000 000 000 000 000 

000 000 000 000 000 000 000 000 000 000 000 000 
000 000 000 000 000 000 000 000 000 000 000 000 
000 000 000 000 000 000 000 000 000 000 000 000 
000 000 000 000 000 000 000 000 000 000 000 000 

000 000 000 000 000 000 000 000 000 000 000 000 
127 178 56 127 178 56 127 178 56 127 178 56 
127 178 56 000 000 000 000 000 000 000 000 000 
000 000 000 000 000 000 000 000 000 000 000 000 

000 000 000 000 000 000 000 000 000 127 178 56 
127 178 56 127 178 56 127 178 56 127 178 56 
127 178 56 127 178 56 000 000 000 000 000 000 
000 000 000 000 000 000 000 000 000 000 000 000 

000 000 000 000 000 000 000 000 000 127 178 56 
127 178 56 127 178 56 127 178 56 127 178 56 
000 000 000 000 000 000 000 000 000 000 000 000 
000 000 000 000 000 000 000 000 000 000 000 000 